HIERARCHY
ROOT Hips
{
	OFFSET 0.00000 0.00000 0.00000
	CHANNELS 6 Xposition Yposition Zposition Yrotation Zrotation Xrotation 
	JOINT Lumbar
	{
		OFFSET 0 0 0
		CHANNELS 3 Zrotation Xrotation Yrotation
		JOINT Neck
		{
			OFFSET 0.00 0.2701 0.00
			CHANNELS 3 Zrotation Xrotation Yrotation
			End Site
			{
				OFFSET 0.00 0.1379 0.00
			}
		}
		JOINT RightShoulder
		{
			OFFSET 0.0119 0.2289 0.1181
			CHANNELS 3 Zrotation Xrotation Yrotation
			JOINT RightElbow
			{
				OFFSET 0.00 -0.1475 0.00
				CHANNELS 2 Zrotation Yrotation
				JOINT RightWrist
				{
					OFFSET 0.00 -0.1605 0.00
					CHANNELS 2 Zrotation Xrotation
					End Site
					{
						OFFSET 0.0040 -0.1068 0.0006
					}
				}
			}
		}
		JOINT LeftShoulder
		{
			OFFSET 0.0119 0.2289 -0.1181
			CHANNELS 3 Zrotation Xrotation Yrotation
			JOINT LeftElbow
			{
				OFFSET 0.00 -0.1475 0.00
				CHANNELS 2 Zrotation Yrotation
				JOINT LeftWrist
				{
					OFFSET 0.00 -0.1605 0.00
					CHANNELS 2 Zrotation Xrotation
					End Site
					{
						OFFSET 0.0040 -0.1068 -0.0006
					}
				}
			}
		}
	}
	JOINT RightHip
	{
		OFFSET 0.0316 -0.0424 0.0458
		CHANNELS 3 Zrotation Xrotation Yrotation
		JOINT RightKnee
		{
			OFFSET 0.00 -0.2438 0.00
			CHANNELS 1 Zrotation
			JOINT RightAnkle
			{
				OFFSET 0.00 -0.2449 0.00
				CHANNELS 3 Zrotation Xrotation Yrotation
				End Site
				{
					OFFSET 0.1237 -0.0542 0.0051
				}
			}
		}
	}
	JOINT LeftHip
	{
		OFFSET 0.0316 -0.0424 -0.0458
		CHANNELS 3 Zrotation Xrotation Yrotation
		JOINT LeftKnee
		{
			OFFSET 0.00 -0.2438 0.00
			CHANNELS 1 Zrotation
			JOINT LeftAnkle
			{
				OFFSET 0.00 -0.2449 0.00
				CHANNELS 3 Zrotation Xrotation Yrotation
				End Site
				{
					OFFSET 0.1237 -0.0542 -0.0051
				}
			}
		}
	}
}
MOTION
Frames: 11
Frame Time: 0.02
-0.00084 5e-05 -0.0006 -176.90056 -26.69391 1.77768 45.46365 -0.18376 -8.01639 -14.80535 0.56219 -0.46258 -22.15485 -8.9608 5.43791 27.8056 57.75309 -1.11087 -4.83922 -28.35404 7.49774 1.96863 33.56136 -107.91124 17.13571 -1.33294 27.15117 -3.96698 -3.31703 -20.24985 -6.9494 -4.91725 -3.24939 31.46041 3.53517 1.63778 -24.18827 -6.79443 3.86544 2.65986
0.00012 3e-05 -0.00062 -176.70308 -26.73729 1.75793 45.33677 -0.18245 -7.95799 -14.62859 0.71353 -0.46316 -21.8529 -8.34263 2.75614 27.2994 65.40999 0.68503 -3.63552 -27.98361 7.42664 2.10416 33.41598 -107.928 17.1098 -1.3394 27.29558 -3.94919 -3.44039 -20.27498 -6.96042 -4.92243 -3.25443 31.67075 3.59039 1.76993 -24.21591 -6.7905 3.82157 2.63628
0.00107 1e-05 -0.00064 -176.50603 -26.78044 1.73825 45.21018 -0.18116 -7.89977 -14.45249 0.86444 -0.46374 -21.55192 -7.72653 0.08356 26.7948 73.04046 2.47486 -2.436 -27.6143 7.355 2.24131 33.27086 -107.9518 17.08611 -1.347 27.43947 -3.9315 -3.56354 -20.30008 -6.9714 -4.9276 -3.25945 31.88041 3.64541 1.9016 -24.24348 -6.78657 3.77781 2.61276
0.00203 -1e-05 -0.00066 -176.30913 -26.82367 1.71856 45.08367 -0.17985 -7.84155 -14.27629 1.01532 -0.46432 -21.2509 -7.11029 -2.58977 26.29016 80.67322 4.26512 -1.2361 -27.24499 7.28395 2.3769 33.1259 -107.97018 17.06078 -1.35372 27.58342 -3.91378 -3.68655 -20.32514 -6.98238 -4.93277 -3.26447 32.09009 3.70045 2.03334 -24.27105 -6.78264 3.73408 2.58925
0.00299 -3e-05 -0.00068 -176.11186 -26.86717 1.69878 44.95691 -0.17852 -7.78314 -14.09938 1.16658 -0.4649 -20.94891 -6.49189 -5.27272 25.78391 88.33374 6.06172 -0.03181 -26.87461 7.21385 2.5097 32.98073 -107.97744 17.03202 -1.3586 27.7279 -3.89595 -3.80968 -20.35024 -6.99339 -4.93795 -3.26951 32.30046 3.7557 2.16558 -24.29868 -6.77871 3.69023 2.56567
0.00394 -5e-05 -0.0007 -175.9153 -26.90958 1.67933 44.83071 -0.17731 -7.7253 -13.92501 1.31676 -0.46548 -20.65008 -5.88066 -7.92338 25.28284 95.9008 7.83724 1.15767 -26.50756 7.13909 2.65577 32.83575 -108.03513 17.01871 -1.37178 27.87054 -3.87853 -3.93285 -20.37531 -7.00429 -4.9431 -3.2745 32.50863 3.81024 2.29603 -24.32612 -6.77481 3.64667 2.54228
0.0049 -7e-05 -0.00072 -175.71753 -26.95413 1.65924 44.7035 -0.17586 -7.6664 -13.7457 1.46896 -0.46606 -20.34522 -5.25575 -10.63575 24.7719 103.64636 9.65295 2.37545 -26.13417 7.07342 2.77603 32.69056 -107.99521 16.97546 -1.36892 28.01673 -3.86032 -4.05587 -20.40042 -7.01541 -4.94831 -3.27957 32.72098 3.86615 2.42995 -24.35392 -6.77083 3.60259 2.51855
0.00586 -9e-05 -0.00074 -175.52085 -26.9967 1.63974 44.57724 -0.17463 -7.60844 -13.571 1.6193 -0.46664 -20.04588 -4.64333 -13.29184 24.27005 111.22955 11.43211 3.56748 -25.76671 7.00003 2.91816 32.54554 -108.03811 16.95774 -1.37964 28.15966 -3.84281 -4.17893 -20.4255 -7.02634 -4.95347 -3.28458 32.9295 3.92081 2.56068 -24.38139 -6.76693 3.55898 2.49512
0.0068 -0.00011 -0.00076 -175.32549 -27.03687 1.62098 44.45202 -0.17368 -7.55178 -13.40167 1.76741 -0.46722 -19.75334 -4.04647 -15.8776 23.77913 118.60804 13.16521 4.72706 -25.40601 6.9144 3.09512 32.40071 -108.21212 16.97988 -1.41196 28.2986 -3.82627 -4.30248 -20.45053 -7.037 -4.95852 -3.28947 33.13332 3.9739 2.68751 -24.40843 -6.7631 3.51593 2.47207
0.0078 -0.00013 -0.00078 -175.12251 -27.09092 1.59798 44.32044 -0.17113 -7.4881 -13.20065 1.92848 -0.46782 -19.42183 -3.36095 -18.86343 23.22478 127.14576 15.15923 6.07044 -25.0049 6.89075 3.09609 32.25473 -107.72172 16.79875 -1.33506 28.46048 -3.80452 -4.42453 -20.47578 -7.04908 -4.96407 -3.29493 33.36415 4.03588 2.83677 -24.43787 -6.75882 3.46961 2.44688
0.00868 -0.00015 -0.0008 -174.93565 -27.11566 1.5839 44.20252 -0.17197 -7.43893 -13.06698 2.06213 -0.46836 -19.17247 -2.86192 -21.00805 22.80463 133.24932 16.60526 7.02787 -24.69007 6.74183 3.4525 32.11128 -108.57484 17.02959 -1.47886 28.57398 -3.79352 -4.54887 -20.5006 -7.05826 -4.96864 -3.29925 33.538 4.07921 2.93872 -24.46231 -6.7555 3.43024 2.42619
